<svg viewBox="0 0 480 560" xmlns="http://www.w3.org/2000/svg">
  <defs>
    <linearGradient id="bg" x1="0" y1="0" x2="1" y2="1">
      <stop offset="0%" stop-color="#45526e"/>
      <stop offset="100%" stop-color="#2e3958"/>
    </linearGradient>
  </defs>
  <rect width="480" height="560" fill="url(#bg)"/>
  <!-- bust silhouette -->
  <circle cx="240" cy="235" r="78" fill="#eaf3fb" opacity="0.95"/>
  <path d="M110 480c0-96 58-150 130-150s130 54 130 150v40H110v-40z" fill="#eaf3fb" opacity="0.95"/>
  <!-- collar accent -->
  <path d="M240 342c-20 0-38 8-52 20 14 18 32 28 52 28s38-10 52-28c-14-12-32-20-52-20z" fill="#2e3958" opacity="0.5"/>
  <!-- specialty badge -->
  <circle cx="368" cy="470" r="34" fill="#ffffff"/>
  <circle cx="368" cy="470" r="34" fill="none" stroke="#2e3958" stroke-width="3"/>
  <rect x="358" y="458" width="20" height="26" rx="4" fill="none" stroke="#004a99" stroke-width="3"/><path d="M363 458v-8a5 5 0 0 1 10 0v8" fill="none" stroke="#004a99" stroke-width="3"/>
</svg>
