<svg viewBox="0 0 640 760" xmlns="http://www.w3.org/2000/svg">
  <defs>
    <linearGradient id="skyGrad" x1="0" y1="0" x2="0" y2="1">
      <stop offset="0%" stop-color="#eaf3fb"/>
      <stop offset="100%" stop-color="#ffffff"/>
    </linearGradient>
    <linearGradient id="buildingGrad" x1="0" y1="0" x2="1" y2="1">
      <stop offset="0%" stop-color="#0066cc"/>
      <stop offset="100%" stop-color="#004a99"/>
    </linearGradient>
  </defs>
  <rect width="640" height="760" fill="url(#skyGrad)"/>
  <ellipse cx="320" cy="700" rx="230" ry="18" fill="#0b132b" opacity="0.06"/>

  <!-- side landscaping -->
  <circle cx="95" cy="655" r="34" fill="#0a8a9c" opacity="0.18"/>
  <circle cx="95" cy="675" r="22" fill="#0a8a9c" opacity="0.28"/>
  <circle cx="555" cy="660" r="30" fill="#0a8a9c" opacity="0.18"/>
  <circle cx="555" cy="680" r="20" fill="#0a8a9c" opacity="0.28"/>

  <!-- main building block -->
  <rect x="140" y="230" width="360" height="470" rx="10" fill="url(#buildingGrad)"/>
  <!-- side wing -->
  <rect x="90" y="360" width="60" height="340" rx="8" fill="#0b132b" opacity="0.85"/>
  <rect x="490" y="360" width="60" height="340" rx="8" fill="#0b132b" opacity="0.85"/>

  <!-- window grid -->
  <g fill="#eaf3fb" opacity="0.92">
    <rect x="168" y="266" width="42" height="42" rx="4"/>
    <rect x="228" y="266" width="42" height="42" rx="4"/>
    <rect x="288" y="266" width="42" height="42" rx="4"/>
    <rect x="348" y="266" width="42" height="42" rx="4"/>
    <rect x="408" y="266" width="42" height="42" rx="4"/>
    <rect x="168" y="336" width="42" height="42" rx="4"/>
    <rect x="228" y="336" width="42" height="42" rx="4"/>
    <rect x="288" y="336" width="42" height="42" rx="4"/>
    <rect x="348" y="336" width="42" height="42" rx="4"/>
    <rect x="408" y="336" width="42" height="42" rx="4"/>
    <rect x="168" y="406" width="42" height="42" rx="4"/>
    <rect x="228" y="406" width="42" height="42" rx="4"/>
    <rect x="288" y="406" width="42" height="42" rx="4"/>
    <rect x="348" y="406" width="42" height="42" rx="4"/>
    <rect x="408" y="406" width="42" height="42" rx="4"/>
    <rect x="168" y="476" width="42" height="42" rx="4"/>
    <rect x="228" y="476" width="42" height="42" rx="4"/>
    <rect x="288" y="476" width="42" height="42" rx="4"/>
    <rect x="348" y="476" width="42" height="42" rx="4"/>
    <rect x="408" y="476" width="42" height="42" rx="4"/>
    <rect x="168" y="546" width="42" height="42" rx="4"/>
    <rect x="228" y="546" width="42" height="42" rx="4"/>
    <rect x="352" y="546" width="42" height="42" rx="4"/>
    <rect x="408" y="546" width="42" height="42" rx="4"/>
  </g>

  <!-- entrance -->
  <rect x="285" y="600" width="70" height="100" rx="4" fill="#0b132b"/>
  <rect x="298" y="612" width="44" height="88" rx="2" fill="#7fe6f4" opacity="0.9"/>
  <rect x="255" y="596" width="130" height="10" rx="3" fill="#eaf3fb"/>

  <!-- medical cross sign -->
  <circle cx="320" cy="190" r="46" fill="#ffffff"/>
  <circle cx="320" cy="190" r="46" fill="none" stroke="#0066cc" stroke-width="4"/>
  <rect x="304" y="164" width="32" height="52" rx="6" fill="#0a8a9c"/>
  <rect x="294" y="174" width="52" height="32" rx="6" fill="#0a8a9c"/>

  <!-- flagpole line to building -->
  <rect x="317" y="216" width="6" height="20" fill="#eaf3fb"/>
</svg>
