<svg viewBox="0 0 700 420" xmlns="http://www.w3.org/2000/svg">
  <rect width="700" height="420" fill="#0b132b"/>
  <g opacity="0.08" stroke="#eaf3fb" stroke-width="1">
    <line x1="0" y1="0" x2="0" y2="420"/><line x1="40" y1="0" x2="40" y2="420"/><line x1="80" y1="0" x2="80" y2="420"/><line x1="120" y1="0" x2="120" y2="420"/><line x1="160" y1="0" x2="160" y2="420"/><line x1="200" y1="0" x2="200" y2="420"/><line x1="240" y1="0" x2="240" y2="420"/><line x1="280" y1="0" x2="280" y2="420"/><line x1="320" y1="0" x2="320" y2="420"/><line x1="360" y1="0" x2="360" y2="420"/><line x1="400" y1="0" x2="400" y2="420"/><line x1="440" y1="0" x2="440" y2="420"/><line x1="480" y1="0" x2="480" y2="420"/><line x1="520" y1="0" x2="520" y2="420"/><line x1="560" y1="0" x2="560" y2="420"/><line x1="600" y1="0" x2="600" y2="420"/><line x1="640" y1="0" x2="640" y2="420"/><line x1="680" y1="0" x2="680" y2="420"/>
    <line x1="0" y1="0" x2="700" y2="0"/><line x1="0" y1="40" x2="700" y2="40"/><line x1="0" y1="80" x2="700" y2="80"/><line x1="0" y1="120" x2="700" y2="120"/><line x1="0" y1="160" x2="700" y2="160"/><line x1="0" y1="200" x2="700" y2="200"/><line x1="0" y1="240" x2="700" y2="240"/><line x1="0" y1="280" x2="700" y2="280"/><line x1="0" y1="320" x2="700" y2="320"/><line x1="0" y1="360" x2="700" y2="360"/><line x1="0" y1="400" x2="700" y2="400"/>
  </g>
  <path d="M350 130a56 56 0 0 1 56 56c0 42-56 104-56 104s-56-62-56-104a56 56 0 0 1 56-56z" fill="#0a8a9c"/>
  <circle cx="350" cy="186" r="22" fill="#0b132b"/>
  <text x="350" y="330" font-family="Arial, sans-serif" font-size="16" fill="#eaf3fb" text-anchor="middle" opacity="0.7">Real Google Map — add via admin dashboard</text>
</svg>
