<svg viewBox="0 0 600 460" xmlns="http://www.w3.org/2000/svg">
  <rect width="600" height="460" fill="#eaf3fb"/>
  <ellipse cx="300" cy="400" rx="220" ry="16" fill="#0b132b" opacity="0.05"/>

  <!-- back figure left -->
  <g opacity="0.85">
    <circle cx="195" cy="205" r="46" fill="#004a99"/>
    <path d="M115 360c0-58 36-90 80-90s80 32 80 90v20H115v-20z" fill="#004a99"/>
  </g>
  <!-- back figure right -->
  <g opacity="0.85">
    <circle cx="405" cy="205" r="46" fill="#0a8a9c"/>
    <path d="M325 360c0-58 36-90 80-90s80 32 80 90v20H325v-20z" fill="#0a8a9c"/>
  </g>
  <!-- front center figure -->
  <circle cx="300" cy="185" r="56" fill="#0066cc"/>
  <path d="M204 372c0-70 43-108 96-108s96 38 96 108v18H204v-18z" fill="#0066cc"/>

  <!-- badge -->
  <circle cx="300" cy="120" r="30" fill="#ffffff"/>
  <circle cx="300" cy="120" r="30" fill="none" stroke="#0066cc" stroke-width="3"/>
  <rect x="291" y="105" width="18" height="30" rx="4" fill="#0a8a9c"/>
  <rect x="285" y="111" width="30" height="18" rx="4" fill="#0a8a9c"/>
</svg>
